<svg width="824" height="760" viewBox="0 0 824 760" fill="none" xmlns="http://www.w3.org/2000/svg">
<circle cx="736.147" cy="248.14" r="4.67058" transform="rotate(-99.1613 736.147 248.14)" fill="#C4C4C4" fill-opacity="0.3"/>
<circle cx="695.153" cy="122.285" r="4.67058" transform="rotate(-99.1613 695.153 122.285)" fill="#C4C4C4" fill-opacity="0.3"/>
<circle cx="727.057" cy="178.938" r="1.45956" transform="rotate(-99.1613 727.057 178.938)" fill="#C4C4C4" fill-opacity="0.3"/>
<circle cx="752.881" cy="177.73" r="1.45956" transform="rotate(-99.1613 752.881 177.73)" fill="#C4C4C4" fill-opacity="0.3"/>
<circle cx="712.999" cy="223.783" r="1.45956" transform="rotate(-99.1613 712.999 223.783)" fill="#C4C4C4" fill-opacity="0.3"/>
<circle cx="789.47" cy="265.265" r="0.875734" transform="rotate(-99.1613 789.47 265.265)" fill="#C4C4C4" fill-opacity="0.3"/>
<circle cx="733.676" cy="142.98" r="0.875734" transform="rotate(-99.1613 733.676 142.98)" fill="#C4C4C4" fill-opacity="0.3"/>
<circle cx="814.609" cy="212.127" r="0.875734" transform="rotate(-99.1613 814.609 212.127)" fill="#C4C4C4" fill-opacity="0.3"/>
<circle cx="765.152" cy="217.147" r="2.04338" transform="rotate(-99.1613 765.152 217.147)" fill="#C4C4C4" fill-opacity="0.3"/>
<circle cx="769.262" cy="138.128" r="2.33529" transform="rotate(-99.1613 769.262 138.128)" fill="#C4C4C4" fill-opacity="0.3"/>
<circle cx="670.98" cy="210.749" r="2.33529" transform="rotate(-99.1613 670.98 210.749)" fill="#C4C4C4" fill-opacity="0.3"/>
<circle cx="423.886" cy="242.906" r="4.67058" transform="rotate(-99.1613 423.886 242.906)" fill="#C4C4C4" fill-opacity="0.3"/>
<circle cx="382.892" cy="117.052" r="4.67058" transform="rotate(-99.1613 382.892 117.052)" fill="#C4C4C4" fill-opacity="0.3"/>
<circle cx="414.796" cy="173.704" r="1.45956" transform="rotate(-99.1613 414.796 173.704)" fill="#C4C4C4" fill-opacity="0.3"/>
<circle cx="440.62" cy="172.496" r="1.45956" transform="rotate(-99.1613 440.62 172.496)" fill="#C4C4C4" fill-opacity="0.3"/>
<circle cx="400.738" cy="218.55" r="1.45956" transform="rotate(-99.1613 400.738 218.55)" fill="#C4C4C4" fill-opacity="0.3"/>
<circle cx="477.209" cy="260.031" r="0.875734" transform="rotate(-99.1613 477.209 260.031)" fill="#C4C4C4" fill-opacity="0.3"/>
<circle cx="421.415" cy="137.746" r="0.875734" transform="rotate(-99.1613 421.415 137.746)" fill="#C4C4C4" fill-opacity="0.3"/>
<circle cx="502.348" cy="206.894" r="0.875734" transform="rotate(-99.1613 502.348 206.894)" fill="#C4C4C4" fill-opacity="0.3"/>
<circle cx="452.891" cy="211.913" r="2.04338" transform="rotate(-99.1613 452.891 211.913)" fill="#C4C4C4" fill-opacity="0.3"/>
<circle cx="457.002" cy="132.894" r="2.33529" transform="rotate(-99.1613 457.002 132.894)" fill="#C4C4C4" fill-opacity="0.3"/>
<circle cx="358.719" cy="205.515" r="2.33529" transform="rotate(-99.1613 358.719 205.515)" fill="#C4C4C4" fill-opacity="0.3"/>
<circle cx="44.1919" cy="30.5069" r="3.46793" transform="rotate(-39.4159 44.1919 30.5069)" fill="#C4C4C4" fill-opacity="0.3"/>
<circle cx="85.176" cy="-1.21256" r="1.08373" transform="rotate(-39.4159 85.176 -1.21256)" fill="#C4C4C4" fill-opacity="0.3"/>
<circle cx="95.6123" cy="14.8993" r="1.08373" transform="rotate(-39.4159 95.6123 14.8993)" fill="#C4C4C4" fill-opacity="0.3"/>
<circle cx="51.1545" cy="6.54879" r="1.08373" transform="rotate(-39.4159 51.1545 6.54879)" fill="#C4C4C4" fill-opacity="0.3"/>
<circle cx="53.1574" cy="71.1136" r="0.650237" transform="rotate(-39.4159 53.1574 71.1136)" fill="#C4C4C4" fill-opacity="0.3"/>
<circle cx="96.643" cy="67.3577" r="0.650237" transform="rotate(-39.4159 96.643 67.3577)" fill="#C4C4C4" fill-opacity="0.3"/>
<circle cx="74.9216" cy="37.5152" r="1.51722" transform="rotate(-39.4159 74.9216 37.5152)" fill="#C4C4C4" fill-opacity="0.3"/>
<circle cx="127.14" cy="10.5901" r="1.73397" transform="rotate(-39.4159 127.14 10.5901)" fill="#C4C4C4" fill-opacity="0.3"/>
<circle cx="450.656" cy="334.918" r="3.46793" transform="rotate(-39.4159 450.656 334.918)" fill="#C4C4C4" fill-opacity="0.3"/>
<circle cx="516.039" cy="261.542" r="3.46793" transform="rotate(-39.4159 516.039 261.542)" fill="#C4C4C4" fill-opacity="0.3"/>
<circle cx="491.639" cy="303.198" r="1.08373" transform="rotate(-39.4159 491.639 303.198)" fill="#C4C4C4" fill-opacity="0.3"/>
<circle cx="502.075" cy="319.31" r="1.08373" transform="rotate(-39.4159 502.075 319.31)" fill="#C4C4C4" fill-opacity="0.3"/>
<circle cx="457.617" cy="310.96" r="1.08373" transform="rotate(-39.4159 457.617 310.96)" fill="#C4C4C4" fill-opacity="0.3"/>
<circle cx="459.621" cy="375.525" r="0.650237" transform="rotate(-39.4159 459.621 375.525)" fill="#C4C4C4" fill-opacity="0.3"/>
<circle cx="517.178" cy="293.992" r="0.650237" transform="rotate(-39.4159 517.178 293.992)" fill="#C4C4C4" fill-opacity="0.3"/>
<circle cx="503.106" cy="371.769" r="0.650237" transform="rotate(-39.4159 503.106 371.769)" fill="#C4C4C4" fill-opacity="0.3"/>
<circle cx="481.385" cy="341.926" r="1.51722" transform="rotate(-39.4159 481.385 341.926)" fill="#C4C4C4" fill-opacity="0.3"/>
<circle cx="533.603" cy="315.001" r="1.73397" transform="rotate(-39.4159 533.603 315.001)" fill="#C4C4C4" fill-opacity="0.3"/>
<circle cx="450.258" cy="279.134" r="1.73397" transform="rotate(-39.4159 450.258 279.134)" fill="#C4C4C4" fill-opacity="0.3"/>
<circle cx="138.394" cy="329.685" r="3.46793" transform="rotate(-39.4159 138.394 329.685)" fill="#C4C4C4" fill-opacity="0.3"/>
<circle cx="203.778" cy="256.309" r="3.46793" transform="rotate(-39.4159 203.778 256.309)" fill="#C4C4C4" fill-opacity="0.3"/>
<circle cx="179.378" cy="297.965" r="1.08373" transform="rotate(-39.4159 179.378 297.965)" fill="#C4C4C4" fill-opacity="0.3"/>
<circle cx="189.814" cy="314.077" r="1.08373" transform="rotate(-39.4159 189.814 314.077)" fill="#C4C4C4" fill-opacity="0.3"/>
<circle cx="145.356" cy="305.726" r="1.08373" transform="rotate(-39.4159 145.356 305.726)" fill="#C4C4C4" fill-opacity="0.3"/>
<circle cx="147.359" cy="370.291" r="0.650237" transform="rotate(-39.4159 147.359 370.291)" fill="#C4C4C4" fill-opacity="0.3"/>
<circle cx="204.917" cy="288.759" r="0.650237" transform="rotate(-39.4159 204.917 288.759)" fill="#C4C4C4" fill-opacity="0.3"/>
<circle cx="190.845" cy="366.535" r="0.650237" transform="rotate(-39.4159 190.845 366.535)" fill="#C4C4C4" fill-opacity="0.3"/>
<circle cx="169.124" cy="336.693" r="1.51722" transform="rotate(-39.4159 169.124 336.693)" fill="#C4C4C4" fill-opacity="0.3"/>
<circle cx="221.342" cy="309.768" r="1.73397" transform="rotate(-39.4159 221.342 309.768)" fill="#C4C4C4" fill-opacity="0.3"/>
<circle cx="137.996" cy="273.9" r="1.73397" transform="rotate(-39.4159 137.996 273.9)" fill="#C4C4C4" fill-opacity="0.3"/>
<circle cx="591.085" cy="212.805" r="3.46793" transform="rotate(-39.4159 591.085 212.805)" fill="#C4C4C4" fill-opacity="0.3"/>
<circle cx="656.469" cy="139.429" r="3.46793" transform="rotate(-39.4159 656.469 139.429)" fill="#C4C4C4" fill-opacity="0.3"/>
<circle cx="632.069" cy="181.085" r="1.08373" transform="rotate(-39.4159 632.069 181.085)" fill="#C4C4C4" fill-opacity="0.3"/>
<circle cx="642.505" cy="197.197" r="1.08373" transform="rotate(-39.4159 642.505 197.197)" fill="#C4C4C4" fill-opacity="0.3"/>
<circle cx="598.048" cy="188.846" r="1.08373" transform="rotate(-39.4159 598.048 188.846)" fill="#C4C4C4" fill-opacity="0.3"/>
<circle cx="600.05" cy="253.411" r="0.650237" transform="rotate(-39.4159 600.05 253.411)" fill="#C4C4C4" fill-opacity="0.3"/>
<circle cx="657.608" cy="171.879" r="0.650237" transform="rotate(-39.4159 657.608 171.879)" fill="#C4C4C4" fill-opacity="0.3"/>
<circle cx="643.536" cy="249.655" r="0.650237" transform="rotate(-39.4159 643.536 249.655)" fill="#C4C4C4" fill-opacity="0.3"/>
<circle cx="621.815" cy="219.813" r="1.51722" transform="rotate(-39.4159 621.815 219.813)" fill="#C4C4C4" fill-opacity="0.3"/>
<circle cx="674.033" cy="192.888" r="1.73397" transform="rotate(-39.4159 674.033 192.888)" fill="#C4C4C4" fill-opacity="0.3"/>
<circle cx="590.688" cy="157.02" r="1.73397" transform="rotate(-39.4159 590.688 157.02)" fill="#C4C4C4" fill-opacity="0.3"/>
<circle cx="278.825" cy="207.571" r="3.46793" transform="rotate(-39.4159 278.825 207.571)" fill="#C4C4C4" fill-opacity="0.3"/>
<circle cx="344.208" cy="134.195" r="3.46793" transform="rotate(-39.4159 344.208 134.195)" fill="#C4C4C4" fill-opacity="0.3"/>
<circle cx="319.808" cy="175.852" r="1.08373" transform="rotate(-39.4159 319.808 175.852)" fill="#C4C4C4" fill-opacity="0.3"/>
<circle cx="330.245" cy="191.964" r="1.08373" transform="rotate(-39.4159 330.245 191.964)" fill="#C4C4C4" fill-opacity="0.3"/>
<circle cx="285.787" cy="183.613" r="1.08373" transform="rotate(-39.4159 285.787 183.613)" fill="#C4C4C4" fill-opacity="0.3"/>
<circle cx="287.79" cy="248.178" r="0.650237" transform="rotate(-39.4159 287.79 248.178)" fill="#C4C4C4" fill-opacity="0.3"/>
<circle cx="345.347" cy="166.645" r="0.650237" transform="rotate(-39.4159 345.347 166.645)" fill="#C4C4C4" fill-opacity="0.3"/>
<circle cx="331.275" cy="244.422" r="0.650237" transform="rotate(-39.4159 331.275 244.422)" fill="#C4C4C4" fill-opacity="0.3"/>
<circle cx="309.554" cy="214.58" r="1.51722" transform="rotate(-39.4159 309.554 214.58)" fill="#C4C4C4" fill-opacity="0.3"/>
<circle cx="361.772" cy="187.654" r="1.73397" transform="rotate(-39.4159 361.772 187.654)" fill="#C4C4C4" fill-opacity="0.3"/>
<circle cx="278.427" cy="151.787" r="1.73397" transform="rotate(-39.4159 278.427 151.787)" fill="#C4C4C4" fill-opacity="0.3"/>
<circle cx="568.508" cy="108.326" r="6.9779" transform="rotate(-99.1613 568.508 108.326)" fill="#C4C4C4" fill-opacity="0.3"/>
<circle cx="554.927" cy="4.93668" r="2.18059" transform="rotate(-99.1613 554.927 4.93668)" fill="#C4C4C4" fill-opacity="0.3"/>
<circle cx="593.51" cy="3.13187" r="2.18059" transform="rotate(-99.1613 593.51 3.13187)" fill="#C4C4C4" fill-opacity="0.3"/>
<circle cx="533.926" cy="71.9362" r="2.18059" transform="rotate(-99.1613 533.926 71.9362)" fill="#C4C4C4" fill-opacity="0.3"/>
<circle cx="648.175" cy="133.91" r="1.30836" transform="rotate(-99.1613 648.175 133.91)" fill="#C4C4C4" fill-opacity="0.3"/>
<circle cx="685.732" cy="54.5224" r="1.30836" transform="rotate(-99.1613 685.732 54.5224)" fill="#C4C4C4" fill-opacity="0.3"/>
<circle cx="611.843" cy="62.0209" r="3.05283" transform="rotate(-99.1613 611.843 62.0209)" fill="#C4C4C4" fill-opacity="0.3"/>
<circle cx="471.149" cy="52.463" r="3.48895" transform="rotate(-99.1613 471.149 52.463)" fill="#C4C4C4" fill-opacity="0.3"/>
<circle cx="256.247" cy="103.092" r="6.9779" transform="rotate(-99.1613 256.247 103.092)" fill="#C4C4C4" fill-opacity="0.3"/>
<circle cx="242.666" cy="-0.296592" r="2.18059" transform="rotate(-99.1613 242.666 -0.296592)" fill="#C4C4C4" fill-opacity="0.3"/>
<circle cx="281.249" cy="-2.1014" r="2.18059" transform="rotate(-99.1613 281.249 -2.1014)" fill="#C4C4C4" fill-opacity="0.3"/>
<circle cx="221.665" cy="66.7029" r="2.18059" transform="rotate(-99.1613 221.665 66.7029)" fill="#C4C4C4" fill-opacity="0.3"/>
<circle cx="335.914" cy="128.677" r="1.30836" transform="rotate(-99.1613 335.914 128.677)" fill="#C4C4C4" fill-opacity="0.3"/>
<circle cx="373.471" cy="49.2891" r="1.30836" transform="rotate(-99.1613 373.471 49.2891)" fill="#C4C4C4" fill-opacity="0.3"/>
<circle cx="299.582" cy="56.7877" r="3.05283" transform="rotate(-99.1613 299.582 56.7877)" fill="#C4C4C4" fill-opacity="0.3"/>
<circle cx="158.888" cy="47.2296" r="3.48895" transform="rotate(-99.1613 158.888 47.2296)" fill="#C4C4C4" fill-opacity="0.3"/>
<circle cx="451.247" cy="460.155" r="298.867" fill="url(#paint0_linear_244_27182)" fill-opacity="0.2"/>
<circle cx="451.248" cy="460.155" r="240.862" fill="url(#paint1_linear_244_27182)" fill-opacity="0.2" style="mix-blend-mode:color-dodge"/>
<circle cx="451.248" cy="460.155" r="180.028" fill="url(#paint2_linear_244_27182)" fill-opacity="0.2" style="mix-blend-mode:color-dodge"/>
<circle cx="451.247" cy="460.155" r="131.926" fill="url(#paint3_linear_244_27182)" fill-opacity="0.2" style="mix-blend-mode:color-dodge"/>
<circle cx="451.247" cy="460.155" r="100.094" fill="url(#paint4_linear_244_27182)" fill-opacity="0.2" style="mix-blend-mode:color-dodge"/>
<circle cx="451.248" cy="460.155" r="71.7988" fill="url(#paint5_linear_244_27182)"/>
<defs>
<linearGradient id="paint0_linear_244_27182" x1="569.48" y1="161.288" x2="291.414" y2="711.947" gradientUnits="userSpaceOnUse">
<stop stop-color="#ABB8FF"/>
<stop offset="1" stop-color="#352AFF"/>
</linearGradient>
<linearGradient id="paint1_linear_244_27182" x1="546.534" y1="219.293" x2="322.436" y2="663.079" gradientUnits="userSpaceOnUse">
<stop stop-color="#ABB8FF"/>
<stop offset="1" stop-color="#352AFF"/>
</linearGradient>
<linearGradient id="paint2_linear_244_27182" x1="522.468" y1="280.127" x2="354.97" y2="611.826" gradientUnits="userSpaceOnUse">
<stop stop-color="#ABB8FF"/>
<stop offset="1" stop-color="#352AFF"/>
</linearGradient>
<linearGradient id="paint3_linear_244_27182" x1="503.438" y1="328.229" x2="380.693" y2="571.301" gradientUnits="userSpaceOnUse">
<stop stop-color="#ABB8FF"/>
<stop offset="1" stop-color="#352AFF"/>
</linearGradient>
<linearGradient id="paint4_linear_244_27182" x1="490.845" y1="360.061" x2="397.717" y2="544.483" gradientUnits="userSpaceOnUse">
<stop stop-color="#ABB8FF"/>
<stop offset="1" stop-color="#352AFF"/>
</linearGradient>
<linearGradient id="paint5_linear_244_27182" x1="479.651" y1="388.356" x2="412.85" y2="520.645" gradientUnits="userSpaceOnUse">
<stop stop-color="#ABB8FF"/>
<stop offset="1" stop-color="#352AFF"/>
</linearGradient>
</defs>
</svg>
