<svg width="263" height="80" viewBox="0 0 263 80" fill="none" xmlns="http://www.w3.org/2000/svg">
<rect x="3.00537" y="3.02173" width="257" height="74" rx="37" fill="#8786F6"/>
<path d="M68.0761 38.9804L76.3247 44.7234L73.6433 48.0332L65.9149 41.4575L68.0761 38.9804Z" fill="white"/>
<rect width="16.6213" height="3.99872" transform="matrix(-0.728544 0.684999 -0.667 -0.745058 86.0457 36.1385)" fill="white"/>
<path d="M108.108 32.5217V48.5217H105.209V32.5217H108.108ZM113.52 32.5217V34.1155C113.52 34.5738 113.431 35.0504 113.254 35.5452C113.083 36.0347 112.846 36.5035 112.543 36.9514C112.241 37.3941 111.898 37.7743 111.512 38.092L110.2 37.2405C110.486 36.8082 110.736 36.342 110.95 35.842C111.163 35.3368 111.27 34.7665 111.27 34.1311V32.5217H113.52ZM115.354 48.5217V36.5217H118.057V38.5608H118.198C118.448 37.8733 118.862 37.3368 119.44 36.9514C120.018 36.5608 120.708 36.3655 121.51 36.3655C122.323 36.3655 123.008 36.5634 123.565 36.9592C124.127 37.3499 124.523 37.8837 124.752 38.5608H124.877C125.143 37.8941 125.591 37.3629 126.221 36.967C126.857 36.566 127.609 36.3655 128.479 36.3655C129.583 36.3655 130.484 36.7144 131.182 37.4124C131.88 38.1103 132.229 39.1285 132.229 40.467V48.5217H129.393V40.9045C129.393 40.1597 129.195 39.6155 128.799 39.2717C128.403 38.9228 127.919 38.7483 127.346 38.7483C126.664 38.7483 126.13 38.9618 125.745 39.3889C125.364 39.8108 125.174 40.3603 125.174 41.0374V48.5217H122.401V40.7874C122.401 40.1676 122.213 39.6728 121.838 39.303C121.469 38.9332 120.984 38.7483 120.385 38.7483C119.979 38.7483 119.609 38.8525 119.276 39.0608C118.943 39.2639 118.677 39.553 118.479 39.928C118.281 40.2978 118.182 40.7301 118.182 41.2249V48.5217H115.354ZM146.102 48.5217H140.68V32.5217H146.211C147.8 32.5217 149.165 32.842 150.305 33.4827C151.451 34.1181 152.331 35.0321 152.946 36.2249C153.56 37.4176 153.868 38.8446 153.868 40.5061C153.868 42.1728 153.558 43.6051 152.938 44.803C152.323 46.0009 151.435 46.9202 150.274 47.5608C149.118 48.2014 147.727 48.5217 146.102 48.5217ZM143.579 46.0139H145.961C147.076 46.0139 148.006 45.8108 148.75 45.4045C149.495 44.9931 150.055 44.3811 150.43 43.5686C150.805 42.7509 150.993 41.7301 150.993 40.5061C150.993 39.2821 150.805 38.2665 150.43 37.4592C150.055 36.6467 149.5 36.04 148.766 35.6389C148.037 35.2327 147.131 35.0295 146.047 35.0295H143.579V46.0139ZM161.731 48.7561C160.559 48.7561 159.543 48.4983 158.684 47.9827C157.825 47.467 157.158 46.7457 156.684 45.8186C156.215 44.8915 155.981 43.8082 155.981 42.5686C155.981 41.329 156.215 40.2431 156.684 39.3108C157.158 38.3785 157.825 37.6545 158.684 37.1389C159.543 36.6233 160.559 36.3655 161.731 36.3655C162.903 36.3655 163.918 36.6233 164.778 37.1389C165.637 37.6545 166.301 38.3785 166.77 39.3108C167.244 40.2431 167.481 41.329 167.481 42.5686C167.481 43.8082 167.244 44.8915 166.77 45.8186C166.301 46.7457 165.637 47.467 164.778 47.9827C163.918 48.4983 162.903 48.7561 161.731 48.7561ZM161.747 46.4905C162.382 46.4905 162.913 46.316 163.34 45.967C163.767 45.6129 164.085 45.1389 164.293 44.5452C164.507 43.9514 164.614 43.29 164.614 42.5608C164.614 41.8264 164.507 41.1624 164.293 40.5686C164.085 39.9696 163.767 39.4931 163.34 39.1389C162.913 38.7847 162.382 38.6077 161.747 38.6077C161.096 38.6077 160.554 38.7847 160.122 39.1389C159.694 39.4931 159.374 39.9696 159.161 40.5686C158.952 41.1624 158.848 41.8264 158.848 42.5608C158.848 43.29 158.952 43.9514 159.161 44.5452C159.374 45.1389 159.694 45.6129 160.122 45.967C160.554 46.316 161.096 46.4905 161.747 46.4905ZM172.709 41.4905V48.5217H169.881V36.5217H172.584V38.5608H172.725C173.001 37.8889 173.441 37.3551 174.045 36.9592C174.655 36.5634 175.407 36.3655 176.303 36.3655C177.131 36.3655 177.853 36.5426 178.467 36.8967C179.087 37.2509 179.566 37.7639 179.905 38.4358C180.249 39.1077 180.418 39.9228 180.413 40.8811V48.5217H177.584V41.3186C177.584 40.5165 177.376 39.8889 176.959 39.4358C176.548 38.9827 175.978 38.7561 175.249 38.7561C174.754 38.7561 174.314 38.8655 173.928 39.0842C173.548 39.2978 173.249 39.6077 173.03 40.0139C172.816 40.4202 172.709 40.9124 172.709 41.4905ZM188.6 48.7561C187.397 48.7561 186.358 48.5061 185.483 48.0061C184.613 47.5009 183.944 46.7874 183.475 45.8655C183.006 44.9384 182.772 43.8472 182.772 42.592C182.772 41.3577 183.006 40.2743 183.475 39.342C183.949 38.4045 184.611 37.6754 185.459 37.1545C186.308 36.6285 187.306 36.3655 188.452 36.3655C189.191 36.3655 189.889 36.4853 190.545 36.7249C191.207 36.9592 191.79 37.3238 192.295 37.8186C192.806 38.3134 193.207 38.9436 193.499 39.7092C193.79 40.4696 193.936 41.3759 193.936 42.428V43.2952H184.1V41.3889H191.225C191.22 40.8472 191.103 40.3655 190.874 39.9436C190.644 39.5165 190.324 39.1806 189.913 38.9358C189.506 38.691 189.032 38.5686 188.491 38.5686C187.913 38.5686 187.405 38.7092 186.967 38.9905C186.53 39.2665 186.189 39.6311 185.944 40.0842C185.704 40.5321 185.582 41.0243 185.577 41.5608V43.2249C185.577 43.9228 185.704 44.5217 185.959 45.0217C186.215 45.5165 186.571 45.8967 187.03 46.1624C187.488 46.4228 188.025 46.553 188.639 46.553C189.051 46.553 189.423 46.4957 189.756 46.3811C190.09 46.2613 190.379 46.0868 190.624 45.8577C190.868 45.6285 191.053 45.3446 191.178 45.0061L193.819 45.303C193.652 46.0009 193.334 46.6103 192.866 47.1311C192.402 47.6467 191.808 48.0478 191.084 48.3342C190.361 48.6155 189.532 48.7561 188.6 48.7561ZM199.79 32.5217L199.532 43.8186H197.016L196.766 32.5217H199.79ZM198.274 48.6936C197.8 48.6936 197.394 48.5269 197.055 48.1936C196.722 47.8603 196.555 47.454 196.555 46.9749C196.555 46.5061 196.722 46.1051 197.055 45.7717C197.394 45.4384 197.8 45.2717 198.274 45.2717C198.737 45.2717 199.139 45.4384 199.477 45.7717C199.821 46.1051 199.993 46.5061 199.993 46.9749C199.993 47.2926 199.912 47.5816 199.75 47.842C199.594 48.1025 199.386 48.3108 199.125 48.467C198.87 48.6181 198.586 48.6936 198.274 48.6936Z" fill="white"/>
<rect x="3.00537" y="3.02173" width="257" height="74" rx="37" stroke="#ADFFF0" stroke-opacity="0.53" stroke-width="5"/>
</svg>
