<svg width="263" height="80" viewBox="0 0 263 80" fill="none" xmlns="http://www.w3.org/2000/svg">
<rect x="2.7207" y="3.02173" width="257" height="74" rx="37" fill="#8786F6"/>
<line x1="85.7158" y1="32.1805" x2="85.7158" y2="47.8629" stroke="white" stroke-width="5"/>
<line x1="93.7256" y1="32.1805" x2="93.7256" y2="47.8629" stroke="white" stroke-width="5"/>
<path d="M114.804 48.5217V32.5217H120.804C122.033 32.5217 123.064 32.7509 123.897 33.2092C124.736 33.6676 125.369 34.2978 125.796 35.0999C126.228 35.8967 126.444 36.803 126.444 37.8186C126.444 38.8446 126.228 39.7561 125.796 40.553C125.364 41.3499 124.726 41.9775 123.882 42.4358C123.038 42.8889 121.999 43.1155 120.765 43.1155H116.788V40.7327H120.374C121.093 40.7327 121.681 40.6077 122.14 40.3577C122.598 40.1077 122.937 39.7639 123.155 39.3264C123.379 38.8889 123.491 38.3863 123.491 37.8186C123.491 37.2509 123.379 36.7509 123.155 36.3186C122.937 35.8863 122.595 35.5504 122.132 35.3108C121.674 35.066 121.082 34.9436 120.358 34.9436H117.702V48.5217H114.804ZM132.075 48.7639C131.315 48.7639 130.63 48.6285 130.021 48.3577C129.416 48.0816 128.937 47.6754 128.583 47.1389C128.234 46.6025 128.06 45.941 128.06 45.1545C128.06 44.4775 128.185 43.9176 128.435 43.4749C128.685 43.0321 129.026 42.678 129.458 42.4124C129.89 42.1467 130.377 41.9462 130.919 41.8108C131.466 41.6702 132.031 41.5686 132.614 41.5061C133.317 41.4332 133.888 41.3681 134.325 41.3108C134.763 41.2483 135.08 41.1545 135.278 41.0295C135.481 40.8993 135.583 40.6988 135.583 40.428V40.3811C135.583 39.7926 135.409 39.3368 135.06 39.0139C134.711 38.691 134.208 38.5295 133.552 38.5295C132.859 38.5295 132.31 38.6806 131.903 38.9827C131.502 39.2847 131.231 39.6415 131.091 40.053L128.45 39.678C128.659 38.9488 129.002 38.3394 129.481 37.8499C129.961 37.3551 130.547 36.9853 131.239 36.7405C131.932 36.4905 132.698 36.3655 133.536 36.3655C134.114 36.3655 134.69 36.4332 135.263 36.5686C135.836 36.704 136.359 36.928 136.833 37.2405C137.307 37.5478 137.687 37.967 137.974 38.4983C138.265 39.0295 138.411 39.6936 138.411 40.4905V48.5217H135.692V46.8733H135.599C135.427 47.2066 135.185 47.5191 134.872 47.8108C134.565 48.0972 134.177 48.329 133.708 48.5061C133.244 48.678 132.7 48.7639 132.075 48.7639ZM132.81 46.6858C133.377 46.6858 133.869 46.5738 134.286 46.3499C134.703 46.1207 135.023 45.8186 135.247 45.4436C135.476 45.0686 135.591 44.6597 135.591 44.217V42.803C135.502 42.8759 135.351 42.9436 135.138 43.0061C134.929 43.0686 134.695 43.1233 134.435 43.1702C134.174 43.217 133.916 43.2587 133.661 43.2952C133.406 43.3316 133.185 43.3629 132.997 43.3889C132.575 43.4462 132.198 43.54 131.864 43.6702C131.531 43.8004 131.268 43.9827 131.075 44.217C130.882 44.4462 130.786 44.7431 130.786 45.1077C130.786 45.6285 130.976 46.0217 131.356 46.2874C131.737 46.553 132.221 46.6858 132.81 46.6858ZM148.903 43.4749V36.5217H151.731V48.5217H148.989V46.3889H148.864C148.593 47.0608 148.148 47.6103 147.528 48.0374C146.914 48.4644 146.156 48.678 145.255 48.678C144.468 48.678 143.773 48.5035 143.169 48.1545C142.57 47.8004 142.101 47.2874 141.763 46.6155C141.424 45.9384 141.255 45.1207 141.255 44.1624V36.5217H144.083V43.7249C144.083 44.4853 144.291 45.0894 144.708 45.5374C145.125 45.9853 145.672 46.2092 146.349 46.2092C146.765 46.2092 147.169 46.1077 147.56 45.9045C147.95 45.7014 148.271 45.3993 148.521 44.9983C148.776 44.592 148.903 44.0842 148.903 43.4749ZM164.124 39.6936L161.546 39.9749C161.473 39.7144 161.345 39.4696 161.163 39.2405C160.986 39.0113 160.746 38.8264 160.444 38.6858C160.142 38.5452 159.772 38.4749 159.335 38.4749C158.746 38.4749 158.252 38.6025 157.851 38.8577C157.455 39.1129 157.259 39.4436 157.265 39.8499C157.259 40.1988 157.387 40.4827 157.647 40.7014C157.913 40.9202 158.351 41.0999 158.96 41.2405L161.007 41.678C162.142 41.9228 162.986 42.3108 163.538 42.842C164.095 43.3733 164.377 44.0686 164.382 44.928C164.377 45.6832 164.155 46.3499 163.718 46.928C163.285 47.5009 162.684 47.9488 161.913 48.2717C161.142 48.5946 160.257 48.7561 159.257 48.7561C157.788 48.7561 156.606 48.4488 155.71 47.8342C154.814 47.2144 154.28 46.3525 154.108 45.2483L156.866 44.9827C156.991 45.5243 157.257 45.9332 157.663 46.2092C158.069 46.4853 158.598 46.6233 159.249 46.6233C159.921 46.6233 160.46 46.4853 160.866 46.2092C161.278 45.9332 161.483 45.592 161.483 45.1858C161.483 44.842 161.351 44.5582 161.085 44.3342C160.825 44.1103 160.418 43.9384 159.866 43.8186L157.819 43.3889C156.668 43.1493 155.817 42.7457 155.265 42.178C154.713 41.6051 154.439 40.8811 154.444 40.0061C154.439 39.2665 154.64 38.6259 155.046 38.0842C155.457 37.5374 156.028 37.1155 156.757 36.8186C157.491 36.5165 158.338 36.3655 159.296 36.3655C160.702 36.3655 161.809 36.665 162.616 37.2639C163.429 37.8629 163.931 38.6728 164.124 39.6936ZM172.026 48.7561C170.823 48.7561 169.784 48.5061 168.909 48.0061C168.039 47.5009 167.37 46.7874 166.901 45.8655C166.433 44.9384 166.198 43.8472 166.198 42.592C166.198 41.3577 166.433 40.2743 166.901 39.342C167.375 38.4045 168.037 37.6754 168.886 37.1545C169.735 36.6285 170.732 36.3655 171.878 36.3655C172.618 36.3655 173.315 36.4853 173.972 36.7249C174.633 36.9592 175.216 37.3238 175.722 37.8186C176.232 38.3134 176.633 38.9436 176.925 39.7092C177.216 40.4696 177.362 41.3759 177.362 42.428V43.2952H167.526V41.3889H174.651C174.646 40.8472 174.529 40.3655 174.3 39.9436C174.071 39.5165 173.75 39.1806 173.339 38.9358C172.933 38.691 172.459 38.5686 171.917 38.5686C171.339 38.5686 170.831 38.7092 170.394 38.9905C169.956 39.2665 169.615 39.6311 169.37 40.0842C169.131 40.5321 169.008 41.0243 169.003 41.5608V43.2249C169.003 43.9228 169.131 44.5217 169.386 45.0217C169.641 45.5165 169.998 45.8967 170.456 46.1624C170.914 46.4228 171.451 46.553 172.065 46.553C172.477 46.553 172.849 46.4957 173.183 46.3811C173.516 46.2613 173.805 46.0868 174.05 45.8577C174.295 45.6285 174.479 45.3446 174.604 45.0061L177.245 45.303C177.078 46.0009 176.761 46.6103 176.292 47.1311C175.828 47.6467 175.235 48.0478 174.511 48.3342C173.787 48.6155 172.959 48.7561 172.026 48.7561Z" fill="white"/>
<rect x="2.7207" y="3.02173" width="257" height="74" rx="37" stroke="#ADFFF0" stroke-opacity="0.53" stroke-width="5"/>
</svg>
