<svg width="29" height="29" viewBox="0 0 29 29" fill="none" xmlns="http://www.w3.org/2000/svg">
<ellipse cx="14.9616" cy="14.4331" rx="12.0063" ry="11.7744" fill="white"/>
<path fill-rule="evenodd" clip-rule="evenodd" d="M1.78003 14.4328C1.78003 7.36799 7.50715 1.64087 14.5719 1.64087C21.6367 1.64087 27.3638 7.36799 27.3638 14.4328C27.3638 21.4975 21.6367 27.2246 14.5719 27.2246C7.50715 27.2246 1.78003 21.4975 1.78003 14.4328ZM14.5719 3.42578C8.49293 3.42578 3.56494 8.35377 3.56494 14.4328C3.56494 20.5117 8.49293 25.4397 14.5719 25.4397C20.6509 25.4397 25.5789 20.5117 25.5789 14.4328C25.5789 8.35377 20.6509 3.42578 14.5719 3.42578Z" fill="white"/>
<path fill-rule="evenodd" clip-rule="evenodd" d="M11.746 9.53826C12.0222 9.37884 12.3624 9.37884 12.6385 9.53826L19.7781 13.6603C20.0543 13.8198 20.2244 14.1144 20.2244 14.4332C20.2244 14.7521 20.0543 15.0467 19.7781 15.2061L12.6385 19.3282C12.3624 19.4876 12.0222 19.4876 11.746 19.3282C11.4699 19.1688 11.2998 18.8742 11.2998 18.5553V10.3112C11.2998 9.99231 11.4699 9.69768 11.746 9.53826ZM13.0847 11.8569V17.0095L17.547 14.4332L13.0847 11.8569Z" fill="#ABA5FF"/>
<path d="M18.4536 14.7086L12.4182 17.3033L12.8454 11.2872L18.4536 14.7086Z" fill="#9C95F7"/>
</svg>
