<svg width="28" height="29" viewBox="0 0 28 29" fill="none" xmlns="http://www.w3.org/2000/svg">
<path fill-rule="evenodd" clip-rule="evenodd" d="M8.43848 7.68509C8.43848 4.63662 10.9098 2.16534 13.9582 2.16534C17.0067 2.16534 19.478 4.63662 19.478 7.68509C19.478 10.7336 17.0067 13.2048 13.9582 13.2048C10.9098 13.2048 8.43848 10.7336 8.43848 7.68509Z" fill="#9C95F7"/>
<path d="M2.62842 26.2779C2.62842 20.0206 7.70105 14.9479 13.9584 14.9479C20.2158 14.9479 25.2884 20.0206 25.2884 26.2779C25.2884 26.7593 24.8982 27.1495 24.4169 27.1495C24.4169 27.2097 19.7871 27.5864 19.7871 27.5864C19.7934 27.6134 19.7604 27.5881 14.4657 27.5881H13.0675C14.4657 27.5881 3.98129 27.1495 3.49996 27.1495C3.01862 27.1495 2.62842 26.7593 2.62842 26.2779Z" fill="#9C95F7"/>
</svg>
